<?xml version="1.0" encoding="utf-8"?>
<!-- Generator: Adobe Illustrator 16.0.0, SVG Export Plug-In . SVG Version: 6.00 Build 0)  -->
<!DOCTYPE svg PUBLIC "-//W3C//DTD SVG 1.1//EN" "http://www.w3.org/Graphics/SVG/1.1/DTD/svg11.dtd">
<svg version="1.1" id="Layer_1" xmlns:sketch="http://www.bohemiancoding.com/sketch/ns"
	 xmlns="http://www.w3.org/2000/svg" xmlns:xlink="http://www.w3.org/1999/xlink" x="0px" y="0px" width="32px" height="32px"
	 viewBox="0 0 32 32" enable-background="new 0 0 32 32" xml:space="preserve">
<title></title>
<desc></desc>
<g id="Page-1">
	<g id="icon-111-search">
		<path id="search" fill="#FFFFFF" d="M19.916,22.801c-2.005,1.428-4.457,2.267-7.105,2.267c-6.768,0-12.254-5.486-12.254-12.254
			c0-6.768,5.487-12.254,12.254-12.254c6.768,0,12.254,5.487,12.254,12.254c0,2.648-0.839,5.1-2.267,7.105l8.051,8.05
			c0.794,0.794,0.787,2.063,0,2.85l-0.034,0.034c-0.785,0.785-2.063,0.787-2.85,0L19.916,22.801L19.916,22.801z M12.811,22.185
			c5.175,0,9.372-4.196,9.372-9.372s-4.196-9.371-9.372-9.371S3.44,7.638,3.44,12.813S7.636,22.185,12.811,22.185L12.811,22.185z"/>
	</g>
</g>
</svg>
