<?xml version="1.0" encoding="utf-8"?>
<!-- Generator: Adobe Illustrator 16.0.0, SVG Export Plug-In . SVG Version: 6.00 Build 0)  -->
<!DOCTYPE svg PUBLIC "-//W3C//DTD SVG 1.1//EN" "http://www.w3.org/Graphics/SVG/1.1/DTD/svg11.dtd">
<svg version="1.1" id="Capa_1" xmlns="http://www.w3.org/2000/svg" xmlns:xlink="http://www.w3.org/1999/xlink" x="0px" y="0px"
	 width="446.852px" height="446.852px" viewBox="0 0 446.852 446.852" enable-background="new 0 0 446.852 446.852"
	 xml:space="preserve">
<g>
	<path fill="#212D3E" d="M435.956,94.301c-13.907-2.808-16.394,13.688-16.394,13.688l-56.804,166.467H137.837L97.202,53.2
		c-0.893-4.849-4.223-8.895-8.814-10.697L21.834,16.358c-7.335-2.872-15.612,0.731-18.493,8.057
		c-2.876,7.33,0.726,15.612,8.057,18.493l59.177,23.248l41.353,225.139c1.246,6.769,7.145,11.684,14.029,11.684h6.86l-15.664,43.509
		c-1.312,3.646-0.771,7.692,1.46,10.858c2.229,3.167,5.853,5.052,9.721,5.052h10.986c-6.808,7.577-10.986,17.553-10.986,28.523
		c0,23.592,19.197,42.785,42.785,42.785c23.588,0,42.785-19.193,42.785-42.785c0-10.971-4.179-20.946-10.986-28.523H296.2
		c-6.812,7.577-10.989,17.553-10.989,28.523c0,23.592,19.191,42.785,42.785,42.785s42.784-19.193,42.784-42.785
		c0-10.971-4.179-20.946-10.984-28.523h13.362c6.565,0,11.885-5.321,11.885-11.885c0-6.564-5.321-11.884-11.885-11.884H145.244
		l12.834-35.654h215.078c6.202,0,11.69-4.006,13.578-9.907l57.728-180.106C444.461,112.96,448.549,96.843,435.956,94.301z
		 M171.119,409.941c-10.487,0-19.016-8.528-19.016-19.016s8.529-19.017,19.016-19.017s19.015,8.529,19.015,19.017
		S181.606,409.941,171.119,409.941z M327.996,409.941c-10.487,0-19.017-8.528-19.017-19.016s8.529-19.017,19.017-19.017
		s19.014,8.529,19.014,19.017S338.483,409.941,327.996,409.941z"/>
</g>
</svg>
