<?xml version="1.0" encoding="utf-8"?>
<!-- Generator: Adobe Illustrator 16.0.0, SVG Export Plug-In . SVG Version: 6.00 Build 0)  -->
<!DOCTYPE svg PUBLIC "-//W3C//DTD SVG 1.1//EN" "http://www.w3.org/Graphics/SVG/1.1/DTD/svg11.dtd">
<svg version="1.1" id="Layer_1" xmlns="http://www.w3.org/2000/svg" xmlns:xlink="http://www.w3.org/1999/xlink" x="0px" y="0px"
	 width="17.333px" height="25px" viewBox="0 0 17.333 25" enable-background="new 0 0 17.333 25" xml:space="preserve">
<path fill-rule="evenodd" clip-rule="evenodd" fill="#212D3E" d="M12.246,24.67c-1.836-2.277-3.45-4.33-5.127-6.326
	c-0.429-0.51-1.008-0.971-1.609-1.232c-3.521-1.531-5.542-4.837-5.278-8.775c0.243-3.638,2.754-6.789,6.147-7.713
	c3.537-0.963,7.285,0.503,9.297,3.636c1.995,3.105,1.765,7.193-0.46,10.231c-0.605,0.828-1.08,1.84-1.344,2.84
	C13.265,19.643,12.826,22,12.246,24.67z M12.811,9.051c-0.01-2.469-1.914-4.412-4.284-4.373c-2.306,0.038-4.132,1.98-4.122,4.386
	c0.01,2.393,1.863,4.282,4.205,4.29C10.931,13.357,12.82,11.424,12.811,9.051z"/>
</svg>
