<?xml version="1.0" encoding="utf-8"?>
<!-- Generator: Adobe Illustrator 16.0.0, SVG Export Plug-In . SVG Version: 6.00 Build 0)  -->
<!DOCTYPE svg PUBLIC "-//W3C//DTD SVG 1.1//EN" "http://www.w3.org/Graphics/SVG/1.1/DTD/svg11.dtd">
<svg version="1.1" id="Layer_1" xmlns="http://www.w3.org/2000/svg" xmlns:xlink="http://www.w3.org/1999/xlink" x="0px" y="0px"
	 width="612px" height="86px" viewBox="0 0 612 86" enable-background="new 0 0 612 86" xml:space="preserve">
<g>
	<path fill="#212D30" d="M79.199,77.789H58.981L52.92,50.211c-0.289-1.154-0.744-3.448-1.364-6.883
		c-0.621-3.435-1.076-6.306-1.364-8.615c-0.231,1.876-0.606,4.207-1.125,6.992c-0.52,2.786-1.032,5.347-1.537,7.685
		c-0.505,2.338-2.605,11.805-6.299,28.4H21.014L5.342,14.495h16.494l6.884,31.733c1.559,7.014,2.626,12.598,3.204,16.754
		c0.375-2.944,1.046-6.941,2.013-11.992c0.966-5.05,1.868-9.235,2.706-12.555l5.585-23.941h15.845l5.412,23.941
		c0.923,3.839,1.861,8.269,2.814,13.291c0.952,5.022,1.587,8.774,1.905,11.256c0.375-3.204,1.399-8.759,3.074-16.667l7.013-31.82
		h16.495L79.199,77.789z"/>
	<path fill="#212D30" d="M140.545,77.789h-37.578V14.495h37.578v13.724h-20.478v9.958h18.962v13.724h-18.962v11.949h20.478V77.789z"
		/>
	<path fill="#212D30" d="M193.015,58.566c0,3.926-0.996,7.411-2.987,10.456c-1.991,3.045-4.863,5.412-8.615,7.1
		c-3.752,1.688-8.154,2.533-13.204,2.533c-4.214,0-7.75-0.296-10.607-0.887c-2.857-0.591-5.83-1.624-8.918-3.096V59.433
		c3.261,1.674,6.652,2.98,10.174,3.918c3.521,0.938,6.753,1.407,9.697,1.407c2.54,0,4.401-0.439,5.585-1.32
		c1.183-0.88,1.775-2.013,1.775-3.398c0-0.866-0.238-1.624-0.714-2.273s-1.241-1.306-2.294-1.97c-1.054-0.664-3.86-2.02-8.42-4.069
		c-4.128-1.876-7.223-3.694-9.286-5.455c-2.064-1.76-3.594-3.781-4.589-6.061c-0.996-2.28-1.494-4.979-1.494-8.096
		c0-5.83,2.122-10.375,6.364-13.637c4.243-3.261,10.072-4.892,17.49-4.892c6.551,0,13.232,1.515,20.044,4.546l-5.238,13.204
		c-5.917-2.712-11.025-4.069-15.326-4.069c-2.223,0-3.839,0.39-4.849,1.169c-1.011,0.779-1.516,1.747-1.516,2.9
		c0,1.241,0.642,2.353,1.927,3.333c1.284,0.981,4.769,2.771,10.455,5.368c5.455,2.454,9.243,5.087,11.364,7.901
		C191.955,50.752,193.015,54.295,193.015,58.566z"/>
	<path fill="#212D30" d="M230.724,77.789h-17.101V28.478h-15.456V14.495h47.968v13.983h-15.412V77.789z"/>
	<path fill="#212D30" d="M278.215,77.789V14.495h17.187v63.294H278.215z"/>
	<path fill="#212D30" d="M369.346,77.789H346.92l-23.118-44.591h-0.39c0.548,7.013,0.823,12.367,0.823,16.062v28.53h-15.153V14.495
		h22.34l23.031,43.985h0.26c-0.404-6.378-0.606-11.501-0.606-15.369V14.495h15.239V77.789z"/>
	<path fill="#212D30" d="M436.753,44.799c0,10.563-2.908,18.703-8.724,24.417c-5.815,5.714-13.991,8.572-24.525,8.572h-20.478
		V14.495h21.906c10.159,0,18.003,2.598,23.53,7.792C433.989,27.482,436.753,34.987,436.753,44.799z M419.003,45.406
		c0-5.801-1.147-10.102-3.441-12.901c-2.295-2.799-5.78-4.199-10.455-4.199h-4.979v35.457h3.811c5.194,0,9.005-1.508,11.429-4.524
		C417.791,56.222,419.003,51.611,419.003,45.406z"/>
	<path fill="#212D30" d="M448.095,77.789V14.495h17.188v63.294H448.095z"/>
	<path fill="#212D30" d="M504.376,40.73h27.317v34.115c-7.418,2.54-15.57,3.81-24.46,3.81c-9.756,0-17.296-2.828-22.62-8.485
		c-5.325-5.656-7.988-13.724-7.988-24.201c0-10.217,2.915-18.168,8.746-23.854c5.829-5.686,13.997-8.529,24.503-8.529
		c3.983,0,7.742,0.375,11.278,1.125c3.535,0.751,6.616,1.704,9.242,2.857l-5.411,13.421c-4.561-2.251-9.567-3.377-15.022-3.377
		c-4.993,0-8.854,1.624-11.581,4.871c-2.728,3.247-4.091,7.887-4.091,13.918c0,5.917,1.233,10.427,3.701,13.529
		c2.468,3.103,6.024,4.654,10.672,4.654c2.539,0,4.877-0.245,7.014-0.736v-9.914h-11.3V40.73z"/>
	<path fill="#212D30" d="M603.819,46.055c0,10.65-2.612,18.746-7.836,24.287s-12.873,8.312-22.945,8.312
		c-9.929,0-17.541-2.785-22.837-8.355c-5.296-5.57-7.944-13.68-7.944-24.331c0-10.534,2.634-18.579,7.901-24.135
		c5.267-5.556,12.923-8.334,22.967-8.334c10.072,0,17.707,2.756,22.901,8.269C601.222,27.281,603.819,35.376,603.819,46.055z
		 M560.267,46.055c0,12.237,4.258,18.356,12.771,18.356c4.33,0,7.54-1.486,9.633-4.459s3.139-7.605,3.139-13.897
		c0-6.321-1.061-10.989-3.182-14.005c-2.121-3.016-5.289-4.524-9.503-4.524C564.553,27.526,560.267,33.703,560.267,46.055z"/>
</g>
</svg>
