<?xml version="1.0" encoding="utf-8"?>
<!-- Generator: Adobe Illustrator 16.0.0, SVG Export Plug-In . SVG Version: 6.00 Build 0)  -->
<!DOCTYPE svg PUBLIC "-//W3C//DTD SVG 1.1//EN" "http://www.w3.org/Graphics/SVG/1.1/DTD/svg11.dtd">
<svg version="1.1" id="Layer_1" xmlns="http://www.w3.org/2000/svg" xmlns:xlink="http://www.w3.org/1999/xlink" x="0px" y="0px"
	 width="50px" height="50px" viewBox="0 0 50 50" enable-background="new 0 0 50 50" xml:space="preserve">
<path fill="#FFFFFF" d="M45.844,28.934l4.104-18.055c0.297-1.304-0.694-2.545-2.031-2.545H13.82l-0.796-3.89
	c-0.198-0.969-1.051-1.666-2.041-1.666h-8.9C0.933,2.778,0,3.71,0,4.861V6.25C0,7.4,0.933,8.333,2.083,8.333h6.066l6.098,29.812
	c-1.459,0.839-2.442,2.412-2.442,4.216c0,2.685,2.176,4.861,4.861,4.861c2.685,0,4.861-2.177,4.861-4.861
	c0-1.361-0.56-2.59-1.46-3.473h18.198c-0.9,0.883-1.46,2.111-1.46,3.473c0,2.685,2.177,4.861,4.86,4.861
	c2.686,0,4.861-2.177,4.861-4.861c0-1.925-1.118-3.588-2.74-4.375l0.479-2.107c0.296-1.305-0.695-2.545-2.031-2.545H18.934
	l-0.568-2.778h25.447C44.785,30.556,45.629,29.883,45.844,28.934z"/>
</svg>
