<?xml version="1.0" encoding="utf-8"?>
<!-- Generator: Adobe Illustrator 16.0.0, SVG Export Plug-In . SVG Version: 6.00 Build 0)  -->
<!DOCTYPE svg PUBLIC "-//W3C//DTD SVG 1.1//EN" "http://www.w3.org/Graphics/SVG/1.1/DTD/svg11.dtd">
<svg version="1.1" id="Layer_1" xmlns="http://www.w3.org/2000/svg" xmlns:xlink="http://www.w3.org/1999/xlink" x="0px" y="0px"
	 width="257px" height="50px" viewBox="0 0 257 50" enable-background="new 0 0 257 50" xml:space="preserve">
<path fill="#212D30" d="M252.592,17.663l-12.682-1.849l-5.669-11.493c-1.016-2.048-3.958-2.075-4.982,0l-5.669,11.493l-12.682,1.849
	c-2.274,0.33-3.186,3.134-1.537,4.739l9.176,8.941l-2.17,12.63c-0.391,2.283,2.014,3.993,4.027,2.925l11.346-5.963l11.346,5.963
	c2.014,1.06,4.418-0.642,4.027-2.925l-2.17-12.63l9.176-8.941C255.777,20.797,254.866,17.993,252.592,17.663z M240.482,29.885
	l2.058,12.014l-10.79-5.668l-10.79,5.668l2.058-12.014l-8.732-8.506l12.065-1.753l5.399-10.938l5.399,10.938l12.065,1.753
	L240.482,29.885z"/>
<path fill="#212D30" d="M201.092,17.664l-12.682-1.849l-5.669-11.493c-1.016-2.048-3.958-2.075-4.982,0l-5.669,11.493l-12.682,1.849
	c-2.274,0.33-3.186,3.134-1.537,4.739l9.176,8.941l-2.17,12.631c-0.391,2.283,2.014,3.992,4.027,2.924l11.346-5.963l11.346,5.963
	c2.014,1.061,4.418-0.641,4.027-2.924l-2.17-12.631l9.176-8.941C204.277,20.797,203.366,17.993,201.092,17.664z M188.982,29.885
	l2.058,12.014l-10.79-5.668l-10.79,5.668l2.058-12.014l-8.732-8.506l12.065-1.753l5.399-10.938l5.399,10.938l12.065,1.753
	L188.982,29.885z"/>
<path fill="#212D30" d="M149.342,17.663l-12.682-1.849l-5.669-11.493c-1.016-2.048-3.958-2.075-4.982,0l-5.669,11.493l-12.682,1.849
	c-2.274,0.33-3.186,3.134-1.537,4.739l9.176,8.941l-2.17,12.631c-0.391,2.283,2.014,3.992,4.027,2.924l11.346-5.963l11.346,5.963
	c2.014,1.061,4.418-0.641,4.027-2.924l-2.17-12.631l9.176-8.941C152.527,20.797,151.616,17.993,149.342,17.663z M137.232,29.885
	l2.058,12.014L128.5,36.23l-10.79,5.668l2.058-12.014l-8.732-8.506l12.065-1.753L128.5,8.688l5.399,10.938l12.065,1.753
	L137.232,29.885z"/>
<path fill="#212D30" d="M97.592,17.663L84.91,15.814L79.241,4.321c-1.016-2.048-3.958-2.075-4.982,0L68.59,15.814l-12.682,1.849
	c-2.274,0.33-3.186,3.134-1.537,4.739l9.176,8.941l-2.17,12.631c-0.391,2.283,2.014,3.992,4.027,2.924l11.346-5.963l11.346,5.963
	c2.014,1.061,4.418-0.641,4.027-2.924l-2.17-12.631l9.176-8.941C100.777,20.797,99.866,17.993,97.592,17.663z M85.482,29.885
	l2.058,12.014L76.75,36.23l-10.79,5.668l2.058-12.014l-8.732-8.506l12.065-1.753L76.75,8.688l5.399,10.938l12.065,1.753
	L85.482,29.885z"/>
<path fill="#212D30" d="M45.842,17.663L33.16,15.814L27.49,4.321c-1.016-2.048-3.958-2.075-4.982,0l-5.669,11.493L4.158,17.663
	c-2.274,0.33-3.186,3.134-1.537,4.739l9.176,8.941l-2.17,12.631c-0.391,2.283,2.014,3.992,4.027,2.924L25,40.936l11.346,5.963
	c2.014,1.061,4.418-0.641,4.027-2.924l-2.17-12.631l9.176-8.941C49.027,20.797,48.115,17.993,45.842,17.663z M33.732,29.885
	l2.057,12.014L25,36.23l-10.79,5.668l2.058-12.014l-8.732-8.506L19.6,19.625L25,8.688l5.399,10.938l12.066,1.753L33.732,29.885z"/>
</svg>
