<?xml version="1.0" encoding="utf-8"?>
<!-- Generator: Adobe Illustrator 16.0.0, SVG Export Plug-In . SVG Version: 6.00 Build 0)  -->
<!DOCTYPE svg PUBLIC "-//W3C//DTD SVG 1.1//EN" "http://www.w3.org/Graphics/SVG/1.1/DTD/svg11.dtd">
<svg version="1.1" id="Layer_1" xmlns="http://www.w3.org/2000/svg" xmlns:xlink="http://www.w3.org/1999/xlink" x="0px" y="0px"
	 width="257px" height="50px" viewBox="0 0 257 50" enable-background="new 0 0 257 50" xml:space="preserve">
<path fill="#212D30" d="M22.509,4.321L16.84,15.814L4.158,17.664c-2.274,0.33-3.186,3.134-1.537,4.739l9.175,8.941l-2.17,12.63
	c-0.391,2.283,2.014,3.993,4.027,2.925L25,40.936l11.346,5.963c2.014,1.06,4.418-0.642,4.027-2.925l-2.17-12.63l9.176-8.941
	c1.648-1.605,0.737-4.41-1.537-4.739L33.16,15.814L27.491,4.321C26.476,2.273,23.533,2.247,22.509,4.321z"/>
<path fill="#212D30" d="M74.259,4.321L68.59,15.814l-12.682,1.849c-2.274,0.33-3.186,3.134-1.537,4.739l9.176,8.941l-2.17,12.63
	c-0.391,2.283,2.014,3.993,4.027,2.925l11.346-5.963l11.346,5.963c2.014,1.06,4.418-0.642,4.027-2.925l-2.17-12.63l9.176-8.941
	c1.648-1.605,0.737-4.41-1.537-4.739L84.91,15.814L79.241,4.321C78.226,2.273,75.283,2.247,74.259,4.321z"/>
<path fill="#212D30" d="M126.009,4.321l-5.669,11.493l-12.682,1.849c-2.274,0.33-3.186,3.134-1.537,4.739l9.176,8.941l-2.17,12.63
	c-0.391,2.283,2.014,3.993,4.027,2.925l11.346-5.963l11.346,5.963c2.014,1.06,4.418-0.642,4.027-2.925l-2.17-12.63l9.176-8.941
	c1.648-1.605,0.737-4.41-1.537-4.739l-12.682-1.849l-5.669-11.493C129.976,2.273,127.033,2.247,126.009,4.321z"/>
<g>
	<path fill="#212D30" d="M180.25,2.781c-0.99,0-1.979,0.512-2.491,1.545l-5.669,11.493l-12.682,1.84
		c-2.274,0.33-3.186,3.134-1.537,4.74l9.176,8.941l-2.17,12.63c-0.391,2.266,1.996,3.993,4.027,2.926l11.346-5.955V2.781z"/>
	<path fill="#212D30" d="M201.092,17.663l-12.682-1.849l-5.669-11.493c-1.016-2.048-3.958-2.075-4.982,0l-5.669,11.493
		l-12.682,1.849c-2.274,0.33-3.186,3.134-1.537,4.739l9.176,8.941l-2.17,12.63c-0.391,2.283,2.014,3.993,4.027,2.925l11.346-5.963
		l11.346,5.963c2.014,1.06,4.418-0.642,4.027-2.925l-2.17-12.63l9.176-8.941C204.277,20.797,203.366,17.993,201.092,17.663z
		 M188.982,29.885l2.058,12.014l-10.79-5.668l-10.79,5.668l2.058-12.014l-8.732-8.506l12.065-1.753l5.399-10.938l5.399,10.938
		l12.065,1.753L188.982,29.885z"/>
</g>
<path fill="#212D30" d="M252.592,17.663l-12.682-1.849l-5.669-11.493c-1.016-2.048-3.958-2.075-4.982,0l-5.669,11.493l-12.682,1.849
	c-2.274,0.33-3.186,3.134-1.537,4.739l9.176,8.941l-2.17,12.63c-0.391,2.283,2.014,3.993,4.027,2.925l11.346-5.963l11.346,5.963
	c2.014,1.06,4.418-0.642,4.027-2.925l-2.17-12.63l9.176-8.941C255.777,20.797,254.866,17.993,252.592,17.663z M240.482,29.885
	l2.058,12.014l-10.79-5.668l-10.79,5.668l2.058-12.014l-8.732-8.506l12.065-1.753l5.399-10.938l5.399,10.938l12.065,1.753
	L240.482,29.885z"/>
</svg>
